<svg width="22" height="31" viewBox="0 0 22 31" fill="none" xmlns="http://www.w3.org/2000/svg">
<path d="M13.7518 1.46616C13.2363 0.582414 12.2789 0.0668945 11.2478 0.0668945C10.2168 0.0668945 9.25941 0.582414 8.74389 1.46616C6.82911 4.63291 0.495605 15.4588 0.495605 20.2457C0.495605 26.1374 5.28256 30.998 11.2478 30.998C17.1395 30.998 22.0001 26.211 22.0001 20.2457C22.0001 15.4588 15.7402 4.63291 13.7518 1.46616ZM10.585 24.8854C10.3641 25.4009 9.84858 25.6955 9.33306 25.6955C9.11212 25.6955 8.96483 25.6219 8.74389 25.5482C6.46088 24.5172 5.06162 22.3078 5.06162 19.8775C5.06162 18.6255 5.72443 16.7844 7.05005 14.2068C7.41827 13.544 8.22837 13.2494 8.89118 13.6177C9.55399 13.9859 9.84858 14.796 9.48035 15.4588C8.00744 18.4046 7.7865 19.5829 7.7865 19.8775C7.7865 21.2768 8.5966 22.5288 9.84858 23.1179C10.585 23.3389 10.8796 24.149 10.585 24.8854Z" fill="#A5A6F6"/>
</svg>
