<svg width="28" height="12" viewBox="0 0 28 12" fill="none" xmlns="http://www.w3.org/2000/svg">
<path d="M4.36523 11.2856C7.0166 11.2856 8.58398 9.19092 8.58398 5.65332C8.58398 4.41553 8.36426 3.37549 7.93213 2.5332C7.25098 1.1123 5.99121 0.313965 4.42383 0.313965C2.18994 0.313965 0.563965 1.85205 0.563965 3.96875C0.563965 5.97559 2.06543 7.4624 4.07227 7.4624C5.43457 7.4624 6.54785 6.77393 6.97266 5.73389H6.97998H6.9873C6.99463 5.73389 7.00195 5.73389 7.00195 5.73389C7.00195 8.3999 6.03516 9.92334 4.38721 9.92334C3.41309 9.92334 2.60742 9.34473 2.3584 8.48047H0.710449C1.02539 10.1577 2.48291 11.2856 4.36523 11.2856ZM4.42383 6.12207C3.14209 6.12207 2.19727 5.18457 2.19727 3.91748C2.19727 2.68701 3.18604 1.71289 4.4458 1.71289C5.70557 1.71289 6.68701 2.69434 6.68701 3.94678C6.68701 5.19189 5.72021 6.12207 4.42383 6.12207ZM11.2691 9.45459C11.8038 9.45459 12.2286 9.02979 12.2286 8.49512C12.2286 7.96045 11.8038 7.53564 11.2691 7.53564C10.7344 7.53564 10.3096 7.96045 10.3096 8.49512C10.3096 9.02979 10.7344 9.45459 11.2691 9.45459ZM11.2691 4.11523C11.8038 4.11523 12.2286 3.69775 12.2286 3.15576C12.2286 2.62109 11.8038 2.19629 11.2691 2.19629C10.7344 2.19629 10.3096 2.62109 10.3096 3.15576C10.3096 3.69775 10.7344 4.11523 11.2691 4.11523ZM19.1544 11.0879H20.7291V9.00049H22.1793V7.62354H20.7291V0.519043H18.3561C15.9757 3.96143 14.7746 5.8584 13.8664 7.56494V9.00049H19.1544V11.0879ZM15.3971 7.60889C16.2394 6.07812 17.3087 4.43018 19.1398 1.78613H19.1691V7.64551H15.3971V7.60889ZM26.1609 11.0879H27.7649V0.519043H26.1462L23.363 2.49658V4.10791L26.1242 2.14502H26.1609V11.0879Z" fill="black"/>
</svg>
