
<svg width="64" height="64" viewBox="0 0 64 64" fill="none" xmlns="http://www.w3.org/2000/svg">
<path d="M59.1741 26.0705C60.0579 26.9542 61.5308 26.9542 62.4145 26.0705C63.2983 25.1867 63.2983 23.7138 62.4145 22.8301L40.0999 0.662809C39.2162 -0.220936 37.7433 -0.220936 36.8595 0.662809C35.9758 1.54655 35.9758 3.01946 36.8595 3.90321L37.596 4.63966L4.30826 37.8538C-1.43609 43.5981 -1.43609 52.9511 4.30826 58.6954C10.0526 64.4398 19.4056 64.4398 25.1499 58.6954L58.4377 25.4077L59.1741 26.0705ZM21.9095 55.455C17.9327 59.4319 11.5255 59.4319 7.54866 55.455C3.5718 51.4782 3.5718 45.071 7.54866 41.0942L40.8364 7.80642L55.1973 22.1673L21.9095 55.455Z" fill="#A5A6F6"/>
</svg>
